<svg width="48" height="48" fill="none" xmlns="http://www.w3.org/2000/svg">
  <path d="M15.7886 22.4629c0 .6839.5549 1.2419 1.242 1.2419.687 0 1.2451-.558 1.2419-1.2419 0-.6838-.5549-1.2419-1.2419-1.2419-.6839 0-1.242.5548-1.242 1.2419ZM30.6336 23.7048c-.6871 0-1.242-.558-1.242-1.2419 0-.6871.5581-1.2419 1.242-1.2419.687 0 1.2419.5581 1.2419 1.2419.0032.6839-.5549 1.2419-1.2419 1.2419ZM22.5979 34.9008c0-.6296-.4402-1.3678-1.2796-1.3678-.7175 0-1.2616.5774-1.2616 1.3585 0 .8654.6322 1.3766 1.2634 1.3766.7551 0 1.2778-.666 1.2778-1.3673ZM11.2391 33.533c.8393 0 1.2796.7382 1.2796 1.3678 0 .7013-.5228 1.3673-1.2778 1.3673-.6312 0-1.2635-.5112-1.2635-1.3766 0-.7811.5441-1.3585 1.2617-1.3585ZM37.7738 34.9008c0-.6296-.4403-1.3678-1.2796-1.3678-.7176 0-1.2617.5774-1.2617 1.3585 0 .8654.6323 1.3766 1.2635 1.3766.7551 0 1.2778-.666 1.2778-1.3673ZM29.53 33.5498c.7384 0 1.2891.5951 1.2891 1.3464 0 .7643-.5846 1.3541-1.2869 1.3541-.652 0-1.2857-.5306-1.2857-1.3413 0-.8242.6027-1.3592 1.2835-1.3592Z" fill="#222E30"/>
  <path fill-rule="evenodd" clip-rule="evenodd" d="M37.5 3h-27C6.35786 3 3 6.35786 3 10.5v27c0 4.1421 3.35786 7.5 7.5 7.5h27c4.1421 0 7.5-3.3579 7.5-7.5v-27C45 6.35786 41.6421 3 37.5 3Zm-3.9794 8.9985-2.458 4.258c4.2418 2.2967 7.1128 6.587 7.587 11.6095H9.01778c.47419-5.0225 3.34512-9.3128 7.58372-11.6095l-2.458-4.258c-.1387-.2387-.0581-.5419.1806-.6806.2388-.1387.542-.0581.6807.1806l2.4903 4.3128c1.8999-.8677 4.0386-1.3516 6.3386-1.3516 2.2999 0 4.4386.4839 6.3386 1.3516l2.4903-4.3128c.1354-.2387.4419-.3193.6774-.1806.2354.1387.3193.4419.1806.6806Zm.133 19.1906c0 .351-.2845.6354-.6354.6354s-.6354-.2844-.6354-.6354c0-.3509.2845-.6354.6354-.6354s.6354.2845.6354.6354Zm-14.5743 3.712c0-1.4301 1.0483-2.2471 2.0679-2.2471.9426 0 1.3678.6432 1.3678.6432v-2.6948h.9607v6.4481h-.6839c-.1531 0-.2768-.146-.2768-.2768v-.2769s-.4217.6351-1.3678.6351c-1.1462 0-2.0679-.9234-2.0679-2.2308Zm-4.3476 2.1494c-.1476 0-.2769-.1059-.2769-.2768v-4.022h.9608v.532c.2177-.3272.643-.631 1.2958-.631 1.067 0 1.6351.8506 1.6351 1.6459v2.7519h-.6676c-.175 0-.2931-.1466-.2931-.2931v-2.2471c0-.4409-.2701-.9763-.8948-.9763-.6741 0-1.0754.6371-1.0754 1.2368v2.2797h-.6839ZM11.068 32.654c-1.0196 0-2.068.817-2.068 2.2471 0 1.3074.92178 2.2308 2.068 2.2308.9461 0 1.3677-.6351 1.3677-.6351v.2769c0 .1308.1237.2768.2769.2768h.6838v-4.2988h-.9607v.5455s-.4252-.6432-1.3677-.6432Zm13.7429 4.3965c-.1476 0-.2768-.1059-.2768-.2768v-4.022h.9607v.7165c.1654-.4014.5222-.7653 1.1561-.7653.1767 0 .342.0325.342.0325v.9933s-.2064-.0814-.456-.0814c-.674 0-1.0421.637-1.0421 1.2368v2.1664h-.6839Zm8.0113 0c-.1476 0-.2768-.1059-.2768-.2768v-4.022h.9607v4.2988h-.6839Zm1.4329-2.1494c0-1.4301 1.0484-2.2471 2.068-2.2471.9426 0 1.3678.6432 1.3678.6432v-2.6948h.9607v6.4481h-.6839c-.1531 0-.2768-.146-.2768-.2768v-.2769s-.4217.6351-1.3678.6351c-1.1462 0-2.068-.9234-2.068-2.2308Zm-4.7286-2.2485c-1.0678 0-2.2409.797-2.2409 2.2409 0 1.3157.9992 2.2385 2.2386 2.2385 1.5273 0 2.2731-1.2278 2.2731-2.2302 0-1.2301-.9603-2.2492-2.2708-2.2492Z" fill="#222E30"/>
</svg>
