<?xml version="1.0" ?><!-- Uploaded to: SVG Repo, www.svgrepo.com, Generator: SVG Repo Mixer Tools -->
<svg width="800px" height="800px" viewBox="0 0 32 32" data-name="Layer 1" id="Layer_1" xmlns="http://www.w3.org/2000/svg"><defs><style>.cls-1{fill:#edbe9d;}.cls-2{fill:#f9dcc4;}.cls-3{fill:#fff2e9;}.cls-4{fill:#577590;}</style></defs><rect class="cls-1" height="25" rx="2.5" width="19" x="4" y="2"/><rect class="cls-2" height="25" rx="2.5" width="19" x="9" y="5"/><path class="cls-1" d="M26,20v4a4,4,0,0,1-4,4H14a1,1,0,0,0-1,1h0a1,1,0,0,0,1,1H25.5A2.5,2.5,0,0,0,28,27.5V20a1,1,0,0,0-1-1h0A1,1,0,0,0,26,20Z"/><path class="cls-3" d="M18,5h7a1,1,0,0,1,0,2H18a1,1,0,0,1,0-2Z"/><path class="cls-3" d="M9,13.5v-2a1,1,0,0,1,2,0v2a1,1,0,0,1-2,0Z"/><path class="cls-3" d="M9,24.5v-8a1,1,0,0,1,2,0v8a1,1,0,0,1-2,0Z"/><path class="cls-4" d="M23.5,10.6a2.54,2.54,0,0,0-1.52.48,1.66,1.66,0,0,1-2,0,2.57,2.57,0,0,0-1.52-.48,2.51,2.51,0,0,0-1.52.48,1.66,1.66,0,0,1-2,0,2.54,2.54,0,0,0-1.52-.48.5.5,0,0,0,0,1,1.51,1.51,0,0,1,1,.32A2.54,2.54,0,0,0,16,12.4a2.57,2.57,0,0,0,1.52-.48,1.66,1.66,0,0,1,2,0A2.54,2.54,0,0,0,21,12.4a2.57,2.57,0,0,0,1.52-.48,1.51,1.51,0,0,1,1-.32.5.5,0,0,0,0-1Z"/><path class="cls-4" d="M23.5,16.6a2.54,2.54,0,0,0-1.52.48,1.66,1.66,0,0,1-2,0,2.57,2.57,0,0,0-1.52-.48,2.51,2.51,0,0,0-1.52.48,1.66,1.66,0,0,1-2,0,2.54,2.54,0,0,0-1.52-.48.5.5,0,0,0,0,1,1.51,1.51,0,0,1,1,.32A2.54,2.54,0,0,0,16,18.4a2.57,2.57,0,0,0,1.52-.48,1.66,1.66,0,0,1,2,0A2.54,2.54,0,0,0,21,18.4a2.57,2.57,0,0,0,1.52-.48,1.51,1.51,0,0,1,1-.32.5.5,0,0,0,0-1Z"/><path class="cls-4" d="M23.5,22.6a2.54,2.54,0,0,0-1.52.48,1.66,1.66,0,0,1-2,0,2.57,2.57,0,0,0-1.52-.48,2.51,2.51,0,0,0-1.52.48,1.66,1.66,0,0,1-2,0,2.54,2.54,0,0,0-1.52-.48.5.5,0,0,0,0,1,1.51,1.51,0,0,1,1,.32A2.54,2.54,0,0,0,16,24.4a2.57,2.57,0,0,0,1.52-.48,1.66,1.66,0,0,1,2,0A2.54,2.54,0,0,0,21,24.4a2.57,2.57,0,0,0,1.52-.48,1.51,1.51,0,0,1,1-.32.5.5,0,0,0,0-1Z"/></svg>