<svg width="48" height="48" fill="none" xmlns="http://www.w3.org/2000/svg">
  <path fill-rule="evenodd" clip-rule="evenodd" d="M37.5 3h-27C6.35786 3 3 6.35786 3 10.5v27c0 4.1421 3.35786 7.5 7.5 7.5h27c4.1421 0 7.5-3.3579 7.5-7.5v-27C45 6.35786 41.6421 3 37.5 3ZM27.2911 15.8471c.9275-1.0737 1.3845-2.4537 1.2739-3.8471-1.4172.1435-2.7262.7966-3.6663 1.8291-.9283 1.0187-1.3986 2.3515-1.3073 3.7047 1.4362.0143 2.7997-.6074 3.6997-1.6867Zm3.1222 8.916c.025-1.8697 1.0416-3.5968 2.6936-4.5761-1.0469-1.4417-2.7376-2.323-4.5619-2.378-1.1741-.1189-2.3262.3221-3.2678.6824-.5977.2288-1.1106.425-1.4904.425-.4321 0-.9597-.2043-1.5509-.4333-.773-.2994-1.6548-.6409-2.5736-.6227-2.1336.0665-4.0745 1.2079-5.1126 3.0065-2.2105 3.6904-.5617 9.1141 1.5559 12.0971 1.0594 1.4607 2.2976 3.0924 3.9177 3.0345.735-.0294 1.2565-.241 1.7951-.4596.6233-.2529 1.2696-.5152 2.2962-.5152.968 0 1.5865.2541 2.1802.4979.5691.2338 1.1152.4581 1.9243.4401 1.7012-.0266 2.7731-1.4672 3.7954-2.9417.7612-1.0408 1.3469-2.1912 1.7355-3.4084-2.0205-.824-3.3343-2.7331-3.3367-4.8485Z" fill="#222E3A"/>
</svg>
