<svg width="48" height="48" fill="none" xmlns="http://www.w3.org/2000/svg">
  <path d="M21.509 12.6311c-.4556.0482-.2984.464-.552.473-.2498.0091-.1989-.5294.552-.473Zm1.3735.0686c.4434-.113.4457.3299.6878.2493.2354-.0783-.0037-.5627-.6878-.2493ZM38.164 41.7091c-1.3697.6832-3.1562 2.201-3.8243 2.8299-.4912.4663-2.5495.6976-3.693.1138-1.3552-.6922-.6362-1.7724-2.7288-1.8235-1.0401-.0241-2.0515-.0332-3.065-.0211-.8967.012-1.7926.0392-2.7068.0866-3.1419.0271-3.4493 2.0653-5.4507 1.9907-1.3697-.0504-3.0984-1.1223-6.0671-1.7392-2.08638-.4309-4.08935-.5333-4.51835-1.4492-.4283-.9129.52848-1.9366.59219-2.8465.07812-1.1863-.90578-2.7998-.17852-3.425.60056-.5176 1.91639-.1379 2.76451-.6079.90197-.4964 1.26417-.9099 1.26417-1.9998.3318 1.1133-.0152 2.0359-.76078 2.4879-.44341.2659-1.26794.4067-1.94592.3382-.53685-.0504-.86939.0361-1.03258.2389-.20805.2636-.14122.7247.12065 1.3386.26349.6139.5801 1.0033.53756 1.7543-.04253.7517-.87543 1.6442-.74248 2.2762.05161.2426.29222.4452.86929.6071.95668.2667 2.66426.5085 4.34906.9159 1.8731.4558 3.8069 1.3145 5.0087 1.1495 3.5936-.4964 1.5443-4.3198.9628-5.229-3.0332-4.7372-5.0391-7.8382-6.6449-6.6074-.4191.3201-.4351-.806-.4168-1.2398.0691-1.5569.8663-2.1016 1.3401-3.3135.8868-2.2695 1.5784-4.8689 2.9505-6.2127 1.0212-1.2963 2.6141-3.4302 2.9193-4.5563-.2566-2.4487-.3355-5.0263-.3752-7.28376-.0387-2.4013.3448-4.50811 3.0781-5.98142.6666-.3593 1.5329-.4911 2.4509-.5001 1.6414-.0181 3.4514.4376 4.6078 1.288 1.8435 1.35581 3.0021 4.24152 2.8669 6.31668-.1094 1.5977.1807 3.2721.697 4.9933.618 2.0442 1.596 3.4814 3.1494 5.1159 1.8722 1.9697 3.3293 5.8504 3.7393 8.3082.3865 2.2959-.1169 3.715-.6248 3.7865-.7562.1107-1.2278 2.4939-3.5966 2.3832-1.5117-.0723-1.6598-.9581-2.0788-1.7128-.6735-1.2067-1.3584-.8293-1.6333.4286-.1419.6432-.0387 1.5659.1694 2.2838.4221 1.4704.2772 2.8653.0251 4.5563-.4836 3.2457 2.2861 3.8596 4.1546 2.317 1.8435-1.523 2.2384-1.7656 4.5715-2.5557 3.5183-1.1954 2.3363-2.2522.4442-2.8834-1.6962-.5657-1.766-3.4093-1.1586-3.9456.1352 3.0537 1.7372 3.4966 2.4167 3.9132 2.9107 1.7924-1.0997 3.2627-2.8064 4.1154Zm-7.8347-8.9447c.3203-.3773.6977-.4195 1.195-.4286.0759-1.8612 2.9967-1.7241 3.9534-.9453 0-.4315-.9179-.818-1.2854-1.0003.637-2.1015.3379-2.9459-.0842-4.9307-.3205-1.5147-1.7115-3.553-2.8009-4.1909.2748.2387.7972.934 1.3491 1.9538.9507 1.7558 1.889 4.3507 1.2642 6.5298-.2406.8323-.7904.9371-1.1677.9792-1.675.1732-.6903-1.9637-1.3857-4.9073-.7744-3.2721-1.5686-3.5176-1.7682-3.7744-.9597-4.2573-2.0273-3.8324-2.3293-5.4398-.2711-1.4222 1.2496-2.5986-.8178-2.9964-.6302-.1228-1.5321-.757-1.892-.8022-.3561-.0482-.5308-2.3472.7758-2.4406 1.3067-.0957 1.5565 1.4644 1.2999 2.0783-.3713.6079.0273.8353.6735.6373.5285-.1612.1876-1.5269.3136-1.7294-.341-1.95546-1.164-2.23716-2.0212-2.40136-3.2534.2478-1.7926 3.82276-2.1221 3.47846-.4608-.4851-1.8465-.0271-1.8397-.3382.0297-1.823-.5861-2.87966-1.4342-2.90156-.9445-.0271-1.334 1.28506-1.3911 2.02396-.0539.7096.4253 2.1882.7752 2.0752.2293-.0753.6218-.5325.202-.5303-.2171.003-.5451-.5024-.5793-1.1171-.0327-.6131.1936-1.2301.9962-1.1977.9414.0362.9323 1.8606.8298 1.9314-.3014.2071-.6879.6086-.7296.6771-.2992.4972-.8998.6199-1.1199.8384-.4191.4157-.5042.8857-.1899 1.0658 1.0767.6131.7267 1.2955 2.233 1.3588.9892.0385 1.7341-.1529 2.4076-.357.5246-.1574 2.2094-.5137 2.5647-1.1275.1541-.2606.3478-.2697.4768-.1951.2262.1295.2749.5634-.3076.7186-.8329.2245-1.6741.6651-2.4114.9581-.7357.296-.9711.4098-1.6651.5363-1.5641.2779-2.7188-.5604-1.6695.4459.3478.3353.6825.5446 1.5822.5085 1.9704-.0776 4.1782-2.4247 4.3961-1.3739.0456.2154-.6241.5084-1.1464.766-1.8472.9017-3.1478 2.6823-4.3308 2.0661-1.0584-.5536-2.1115-3.1583-2.0933-1.9915.0296 1.7994-2.391 3.4009-1.2771 5.4489-.7213.195-2.3659 3.6373-2.602 5.43-.129 1.0153.0981 2.2906-.1472 3.0032-.3561 1.0297-1.9733-.9815-1.4571-3.4461.0928-.4339.0145-.5258-.1025-.3164-.6574 1.1525-.2961 2.76.2225 3.8883.2271.4881.7578.7035 1.1502 1.1381.8473.94 4.0894 3.3256 4.6771 3.8973.712.6945.5124 2.2876-1.0016 2.4398.776 1.4522 1.5322 1.59 1.5208 3.9643.8777-.4678.5246-1.4907.1572-2.1648-.2566-.4609-.5922-.6703-.5193-.778.0547-.0813.5064-.467.7783-.165.7995.8889 2.3089 1.0479 3.9321.8475 1.6203-.2041 3.3583-.766 4.1615-2.0473.3766-.6019.6485-.815.823-.7096.1724.1077.2476.5325.2293 1.2149-.0205.7577-.3401 1.5448-.5391 2.1738-.2241.7126-.293 1.218.4069 1.2451.2081-1.3175.5734-2.6138.6788-3.9243.118-1.491-.9707-4.2667.2024-5.6496Zm-9.931-21.1689c-.0539.2938-.0327.4768.1724.4768.0333 0 .069-.0068.0819-.0813.0987-.5838-.2057-1.0086-.3296-1.0425-.2892-.0716-.2528.3382-.1025.3058.0911-.0182.2142.1317.1778.3412Zm5.3481-.8022c-.2962.0271-.2111.1732-.0638.2154.1928.0572.3743.3826.4161.7367.003.0324.2474-.0512.2474-.1288.0184-.5665-.4707-.8348-.5997-.8233Z" fill="#222E3A"/>
</svg>
