<?xml version="1.0" encoding="utf-8"?>
<!-- Generator: Adobe Illustrator 26.2.1, SVG Export Plug-In . SVG Version: 6.00 Build 0)  -->
<svg version="1.1" id="Layer_1" xmlns="http://www.w3.org/2000/svg" xmlns:xlink="http://www.w3.org/1999/xlink" x="0px" y="0px"
	 viewBox="0 0 800 800" style="enable-background:new 0 0 800 800;" xml:space="preserve">
<style type="text/css">
	.st0{fill:#E6F3FF;}
	.st1{fill:#B8D0E6;}
	.st2{fill:#7BD921;}
	.st3{fill:#FFFFFF;}
	.st4{font-family:'Superclarendon-Regular';}
	.st5{font-size:240.2453px;}
	.st6{fill:#66B31B;}
	.st7{font-size:239.9624px;}
</style>
<path class="st0" d="M391.5,798.5C166.8,718,54.4,488.5,53.9,186.3c0-11.4,7.5-21.4,18.3-25c113-37.8,201-81.8,313.2-156.8
	c4.6-3.1,9.9-4.5,15.2-4.4c4.9,0.1,9.8,1.6,14,4.4c112.1,75,200.1,119,313.3,156.9c10.7,3.6,18.1,13.5,18.2,24.7
	c1.8,302.4-112.8,531.9-337.7,612.5C403,800.5,397,800.5,391.5,798.5z"/>
<path class="st1" d="M408.4,798.5C633.3,717.9,747.9,488.4,746.1,186c-0.1-11.2-7.5-21.2-18.2-24.7
	C614.7,123.5,526.7,79.4,414.6,4.4c-4.2-2.8-9.1-4.3-14-4.4v800C403.2,799.9,405.9,799.4,408.4,798.5z"/>
<path class="st2" d="M389,684.5c-187.9-91-225.2-305.2-230.8-424.8c-0.5-10.7,5.9-20.6,15.9-24.5c72.6-28.5,140.1-62.7,212.6-107.6
	c8.1-5,18.3-5,26.4,0c72.5,44.9,140.1,79.1,212.7,107.6c10,3.9,16.4,13.8,15.9,24.5c-5.6,119.6-43,333.7-230.8,424.7
	C403.9,687.8,396,687.8,389,684.5z"/>
<text transform="matrix(0.7174 0 0 1 274.9393 465.6864)" class="st3 st4 st5">J</text>
<path class="st6" d="M625.9,235.3c-72.6-28.5-140.2-62.7-212.7-107.6c-3.9-2.4-8.2-3.6-12.6-3.7V687c3.5-0.1,7-0.9,10.3-2.5
	c187.9-91,225.3-305.2,230.8-424.7C642.2,249,635.8,239.2,625.9,235.3z"/>
<text transform="matrix(0.6215 0 0 1 412.3597 464.528)" class="st3 st4 st7">R</text>
</svg>
