<svg width="48" height="48" fill="none" xmlns="http://www.w3.org/2000/svg">
  <path fill-rule="evenodd" clip-rule="evenodd" d="M27.9359 31.7376c3.6852-.3557 6.9176-1.3254 8.8897-2.5861l1.1639 1.4869c-2.7159 1.5844-6.2392 2.6184-10.0536 3.0065.1454 3.0846.8415 6.1433 2.205 9.1051H36c4.1421 0 7.5-3.3579 7.5-7.5V12c0-4.14214-3.3579-7.5-7.5-7.5h-5.2305c-5.1066 6.0236-7.92 13.0175-8.7815 20.5462h6.9503c-.5823 2.2627-.9376 4.4934-1.0024 6.6914Zm3.1029-18.652h1.9725v4.5582h-1.9725v-4.5582Z" fill="#222E3A"/>
  <path fill-rule="evenodd" clip-rule="evenodd" d="M28.3073 4.5H12.75c-4.14214 0-7.5 3.35786-7.5 7.5v23.25c0 4.1421 3.35786 7.5 7.5 7.5h15.1569c-1.2798-2.7269-1.9062-5.8411-2.0071-9.0549v.0793c-4.9786.1939-10.3446-.7434-14.87-3.0065l.9373-1.4869c4.3954 2.0686 9.4376 2.7797 13.9309 2.5861.0457-1.5953.2129-3.2015.4863-4.7844h-6.7561c.7756-8.8594 3.9732-16.4802 8.6791-22.5827Zm-11.7177 8.5856h-1.972v4.5582h1.972v-4.5582Z" fill="#222E3A"/>
</svg>
