<svg width="48" height="48" fill="none" xmlns="http://www.w3.org/2000/svg">
  <path d="M42.3993 3.36973c-6.7013.95193-13.4955 1.91705-20.1683 3.00314V23.0789c3.7687 0 7.5762-.0384 11.3838-.0767 3.8078-.0384 7.6158-.0767 11.3852-.0767V3c-.865.12318-1.7321.24634-2.6007.36973ZM20.2312 6.67767C14.3845 7.29011 8.69675 8.05689 3 8.97704V23.2323c2.82731 0 5.65438-.0378 8.5003-.0759 2.8842-.0386 5.788-.0775 8.7309-.0775V6.67767ZM8.68418 24.9531c3.81132.0342 7.64392.0685 11.54702-.0339v16.5546c-5.8093-.7609-11.46554-1.5227-17.12182-2.2846L3 39.1745V24.9192c1.89366 0 3.78633.0169 5.68418.0339ZM45 25.0724H22.231v16.708c2.6221.3735 5.2628.7282 7.9094 1.0837 4.9615.6665 9.9433 1.3358 14.8596 2.1358V25.0724Z" fill="#222E3A"/>
</svg>
